# AST/ASF file generated using VICON BodyLanguage
# -----------------------------------------------
:version 1.10
:name VICON
:units
  mass 1.0
  length 0.45
  angle deg
:documentation
   .ast/.asf automatically generated from VICON data using
   VICON BodyBuilder and BodyLanguage model FoxedUp or BRILLIANT.MOD
:root
   order TX TY TZ RX RY RZ
   axis XYZ
   position 0 0 0  
   orientation 0 0 0 
:bonedata
  begin
     id 1 
     name lhipjoint
     direction 0.528046 -0.759594 0.379717 
     length 2.39752 
     axis 0 0 0  XYZ
  end
  begin
     id 2 
     name lfemur
     direction 0.34202 -0.939693 0  
     length 7.31175  
     axis 0 0 20  XYZ
    dof rx ry rz
    limits (-160.0 20.0)
           (-70.0 70.0)
           (-60.0 70.0)
  end
  begin
     id 3 
     name ltibia
     direction 0.34202 -0.939693 0   
     length 7.52482   
     axis 0 0 20   XYZ
    dof rx
    limits (-10.0 170.0)
  end
  begin
     id 4 
     name lfoot
     direction 0.0675379 -0.185559 0.980309   
     length 2.00961   
     axis -90 7.62852e-016 20   XYZ
    dof rx rz
    limits (-45.0 90.0)
           (-70.0 20.0)
  end
  begin
     id 5 
     name ltoes
     direction 1.5352e-011 -4.22286e-011 1   
     length 1.01383   
     axis -90 7.62852e-016 20   XYZ
    dof rx
    limits (-90.0 20.0)
  end
  begin
     id 6 
     name rhipjoint
     direction -0.510274 -0.769251 0.384544   
     length 2.36742  
     axis 0 0 0  XYZ 
  end
  begin
     id 7 
     name rfemur
     direction -0.34202 -0.939693 0   
     length 7.45325   
     axis 0 0 -20   XYZ
    dof rx ry rz
    limits (-160.0 20.0)
           (-70.0 70.0)
           (-70.0 60.0)
  end
  begin
     id 8 
     name rtibia
     direction -0.34202 -0.939693 0   
     length 7.49587   
     axis 0 0 -20   XYZ
    dof rx
    limits (-10.0 170.0)
 end
 begin
     id 9 
     name rfoot
     direction -0.106475 -0.292536 0.950308   
     length 2.20898  
     axis -90 -7.62852e-016 -20   XYZ
    dof rx rz
    limits (-45.0 90.0)
           (-20.0 70.0)
  end
  begin
     id 10 
     name rtoes
     direction -1.53597e-011 -4.22023e-011 1   
     length 1.10065   
     axis -90 -7.62852e-016 -20   XYZ
    dof rx
    limits (-90.0 20.0)
  end
  begin
     id 11 
     name lowerback
     direction 0.0260024 0.998026 -0.0571652   
     length 2.11214   
     axis 0 0 0   XYZ
    dof rx ry rz
    limits (-20.0 45.0)
           (-30.0 30.0)
           (-30.0 30.0)
  end
  begin
     id 12 
     name upperback
     direction 0.0216202 0.999542 -0.0211766   
     length 2.11689   
     axis 0 0 0   XYZ
    dof rx ry rz
    limits (-20.0 45.0)
           (-30.0 30.0)
           (-30.0 30.0)
  end
  begin
     id 13 
     name thorax
     direction 0.00883312 0.999944 0.00589057   
     length 2.11821   
     axis 0 0 0   XYZ
    dof rx ry rz
    limits (-20.0 45.0)
           (-30.0 30.0)
           (-30.0 30.0)
  end
  begin
     id 14 
     name lowerneck
     direction -0.059386 0.994433 0.0870401   
     length 1.81176   
     axis 0 0 0   XYZ
    dof rx ry rz
    limits (-20.0 45.0)
           (-30.0 30.0)
           (-30.0 30.0)
  end
  begin
     id 15 
     name upperneck
     direction 0.0506457 0.97328 -0.223967   
     length 1.82382   
     axis 0 0 0   XYZ
    dof rx ry rz
    limits (-20.0 45.0)
           (-30.0 30.0)
           (-30.0 30.0)
  end
  begin
     id 16
     name head
     direction 0.0205902 0.996147 -0.0852487  
     length 1.84805  
     axis 0 0 0   XYZ
    dof rx ry rz
    limits (-20.0 45.0)
           (-30.0 30.0)
           (-30.0 30.0)
  end
  begin
     id 17 
     name lclavicle
     direction 0.949493 0.303881 -0.0782325  
     length 3.60584  
     axis 0 0 0   XYZ
    dof ry rz
    limits (-20.0 10.0)
           (0.0 20.0)
  end
  begin
     id 18 
     name lhumerus
     direction 1 -4.48965e-011 1.48782e-027   
     length 4.95681   
     axis 180 -30 -90   XYZ
    dof rx ry rz
    limits (-60.0 90.0)
           (-90.0 90.0)
           (-90.0 90.0)
  end
  begin
     id 19
     name lradius
     direction 1 -4.48952e-011 2.06528e-027   
     length 3.40915   
     axis 180 -30 -90   XYZ
    dof rx
    limits (-10.0 170.0)
  end
  begin
     id 20
     name lwrist
     direction 1 -4.48964e-011 1.28021e-027   
     length 1.70457   
     axis -1.61767e-015 90 90   XYZ
    dof ry
    limits (-180.0 0.0)
 end
  begin
     id 21 
     name lhand
     direction 1 -4.49094e-011 2.54887e-027   
     length 0.616403   
     axis -1.63363e-015 90 90   XYZ
    dof rx rz
    limits (-90.0 90.0)
           (-45.0 45.0)
  end
  begin
     id 22 
     name lfingers
     direction 1 -4.49002e-011 5.11407e-027   
     length 0.49696   
     axis -3.26723e-015 90 90   XYZ
    dof rx
    limits (0.0 90.0)
  end
  begin
     id 23
     name lthumb
     direction 0.707107 -6.34998e-011 0.707107   
     length 0.713539   
     axis -90 45 -2.25915e-014   XYZ
    dof rx rz
    limits (-45.0 45.0)
           (-45.0 45.0)
  end
  begin
     id 24 
     name rclavicle
     direction -0.937751 0.334612 -0.0930482   
     length 3.46287  
     axis 0 0 0   XYZ 
    dof ry rz
    limits (-10.0 20.0)
           (-20.0 0.0)
  end
  begin
     id 25 
     name rhumerus
     direction -1 -4.48962e-011 3.59972e-027  
     length 5.352   
     axis 180 30 90   XYZ
    dof rx ry rz
    limits (-90.0 60.0)
           (-90.0 90.0)
           (-90.0 90.0)
  end
  begin
     id 26 
     name rradius
     direction -1 -4.48987e-011 -3.76925e-027   
     length 3.43721   
     axis 180 30 90   XYZ
    dof rx
    limits (-10.0 170.0)
  end
  begin
     id 27 
     name rwrist
     direction -1 -4.48943e-011 1.28112e-027   
     length 1.7186   
     axis -1.61767e-015 -90 -90   XYZ
    dof ry
    limits (-180.0 0.0)
  end
  begin
     id 28
     name rhand
     direction -1 -4.49027e-011 2.55483e-027   
     length 0.72009   
     axis -1.63363e-015 -90 -90   XYZ
    dof rx rz
    limits (-90.0 90.0)
           (-45.0 45.0)
  end
  begin
     id 29
     name rfingers
     direction -1 -4.48827e-011 5.14506e-027   
     length 0.580555   
     axis -3.26723e-015 -90 -90   XYZ
    dof rx
    limits (0.0 90.0)
  end
  begin
     id 30
     name rthumb
     direction -0.707107 -6.34936e-011 0.707107   
     length 0.833564   
     axis -90 -45 2.25915e-014   XYZ
    dof rx rz
    limits (-45.0 45.0)
           (-45.0 45.0)
  end
:hierarchy
  begin
    root lhipjoint rhipjoint lowerback
    lhipjoint lfemur
    lfemur ltibia
    ltibia lfoot
    lfoot ltoes
    rhipjoint rfemur
    rfemur rtibia
    rtibia rfoot
    rfoot rtoes
    lowerback upperback
    upperback thorax
    thorax lowerneck lclavicle rclavicle
    lowerneck upperneck
    upperneck head
    lclavicle lhumerus
    lhumerus lradius
    lradius lwrist
    lwrist lhand lthumb
    lhand lfingers
    rclavicle rhumerus
    rhumerus rradius
    rradius rwrist
    rwrist rhand rthumb
    rhand rfingers
  end

#!OML:ASF H:\Terrain\Patient Classification 1\Terrain2\Thursday\justin.ASF
:FULLY-SPECIFIED
:DEGREES
552
root -1.56669 22.9348 2.41785 356.314 7.51413 -358.088
lowerback 4.47168 -1.85773 -4.48144
upperback 2.96218 -2.62967 1.15121
thorax 0.805559 -1.39368 3.79041
lowerneck -10.8293 -0.254769 -8.98641
upperneck 40.7719 1.31964 2.41325
head 16.4214 -0.491749 2.912
rclavicle -1.91082e-014 -6.36111e-015
rhumerus -42.5849 -27.2657 -63.0984
rradius 24.7358
rwrist -5.38582
rhand -19.5426 12.5562
rfingers 7.12502
rthumb 6.78141 -17.3152
lclavicle -1.91082e-014 -6.36111e-015
lhumerus -33.389 3.56725 84.8681
lradius 48.0139
lwrist 5.94181
lhand -17.2229 21.2802
lfingers 7.12502
lthumb 9.02022 51.0673
rfemur -31.0978 -11.8378 20.8927
rtibia 28.4326
rfoot 23.0133 -5.46899
rtoes 12.6158
lfemur 18.5007 -0.395104 -25.4958
ltibia 17.1292
lfoot -18.7671 -12.0855
ltoes 7.41033
553
root -1.56689 22.8845 2.57031 356.47 7.75892 -357.641
lowerback 4.1247 -1.91215 -4.96277
upperback 2.88062 -2.70346 1.12842
thorax 0.945928 -1.43978 4.02701
lowerneck -10.6874 -0.209 -8.97278
upperneck 40.7672 1.41865 2.29555
head 16.3788 -0.461909 2.87092
rclavicle 4.03533e-014 -2.34566e-014
rhumerus -42.8118 -27.2204 -62.8336
rradius 24.4485
rwrist -5.28949
rhand -19.5174 12.3529
rfingers 7.12502
rthumb 6.8057 -17.5177
lclavicle 4.03533e-014 -2.34566e-014
lhumerus -33.7944 4.28847 84.9064
lradius 47.0929
lwrist 5.64128
lhand -16.4296 22.0382
lfingers 7.12502
lthumb 9.78573 51.7909
rfemur -30.6888 -12.0524 20.4718
rtibia 27.8656
rfoot 23.0831 -5.44098
rtoes 13.73
lfemur 18.6491 -0.594181 -25.9408
ltibia 17.7612
lfoot -19.1903 -12.2696
ltoes 7.43517
554
root -1.56951 22.8324 2.72002 356.567 7.82167 -357.424
lowerback 3.82621 -1.80773 -5.13429
upperback 2.87179 -2.55427 1.10156
thorax 1.0947 -1.37133 4.08096
lowerneck -10.7602 -0.292639 -8.6783
upperneck 40.8268 1.38535 1.89464
head 16.443 -0.484923 2.63802
rclavicle -3.86885e-014 2.38542e-015
rhumerus -43.1132 -27.5741 -62.4583
rradius 24.1592
rwrist -5.23806
rhand -19.7848 12.1228
rfingers 7.12502
rthumb 6.54753 -17.7559
lclavicle -3.86885e-014 2.38542e-015
lhumerus -34.0128 4.45857 85.0282
lradius 46.2608
lwrist 5.67009
lhand -16.3207 22.1667
lfingers 7.12502
lthumb 9.89072 51.9144
rfemur -30.2394 -11.798 20.2241
rtibia 27.4452
rfoot 22.9674 -6.36024
rtoes 16.2095
lfemur 18.8368 -0.645523 -26.0909
ltibia 18.3438
lfoot -19.3236 -12.6751
ltoes 8.19009
555
root -1.57879 22.7788 2.87294 356.598 7.85163 -357.55
lowerback 3.55905 -1.67086 -4.9508
upperback 2.84338 -2.35382 1.08705
thorax 1.18354 -1.26953 3.95005
lowerneck -10.6603 -0.401121 -8.49987
upperneck 40.8359 1.1713 1.87545
head 16.4386 -0.546487 2.56312
rclavicle 1.02623e-014 9.93923e-015
rhumerus -43.6594 -28.1727 -62.0011
rradius 23.9419
rwrist -5.11758
rhand -19.9096 12.3648
rfingers 7.12502
rthumb 6.42707 -17.5177
lclavicle 1.02623e-014 9.93923e-015
lhumerus -34.3342 4.42123 84.995
lradius 45.5267
lwrist 5.70421
lhand -16.5476 21.7948
lfingers 7.12502
lthumb 9.67189 51.5527
rfemur -29.7453 -11.198 20.3025
rtibia 27.2091
rfoot 22.7892 -7.45629
rtoes 18.2673
lfemur 19.1035 -0.476221 -25.7325
ltibia 18.8321
lfoot -19.355 -13.1241
ltoes 8.54742
556
root -1.58228 22.7249 3.03324 356.673 7.9966 -357.542
lowerback 3.18821 -1.65244 -4.89362
upperback 2.80658 -2.31024 1.08215
thorax 1.34547 -1.25017 3.89999
lowerneck -10.5229 -0.471966 -8.65381
upperneck 40.9107 1.00644 2.09872
head 16.4535 -0.609468 2.66482
rclavicle -8.4732e-015 -1.19271e-015
rhumerus -44.0256 -28.4513 -61.7273
rradius 23.774
rwrist -5.04006
rhand -19.9565 12.6626
rfingers 7.12502
rthumb 6.38178 -17.2212
lclavicle -8.4732e-015 -1.19271e-015
lhumerus -34.5902 4.81123 84.9307
lradius 44.5552
lwrist 5.65064
lhand -16.38 21.7208
lfingers 7.12502
lthumb 9.83352 51.4711
rfemur -29.3103 -10.9708 20.2901
rtibia 27.1174
rfoot 23.0246 -7.83194
rtoes 18.4988
lfemur 19.4221 -0.343736 -25.5153
ltibia 19.331
lfoot -19.5069 -13.4877
ltoes 9.41948
557
root -1.57844 22.6682 3.196 356.866 8.19619 -357.154
lowerback 2.73534 -1.6728 -5.18584
upperback 2.69065 -2.3218 1.05207
thorax 1.49232 -1.26212 4.01996
lowerneck -10.203 -0.511561 -8.99117
upperneck 40.9384 0.941618 2.26435
head 16.394 -0.664152 2.78622
rclavicle 2.08972e-014 -2.38542e-015
rhumerus -44.3763 -28.4455 -61.3593
rradius 23.5083
rwrist -5.02338
rhand -19.9934 12.567
rfingers 7.12502
rthumb 6.34615 -17.3179
lclavicle 2.08972e-014 -2.38542e-015
lhumerus -35.0109 5.32146 85.0244
lradius 43.5711
lwrist 5.78626
lhand -15.9027 22.2802
lfingers 7.12502
lthumb 10.294 52.0083
rfemur -28.9617 -11.1667 19.9216
rtibia 27.077
rfoot 23.5361 -7.89881
rtoes 18.9344
lfemur 19.655 -0.44377 -25.8361
ltibia 19.9737
lfoot -19.7573 -13.8681
ltoes 10.9281
558
root -1.57691 22.6016 3.35933 357.026 8.38822 -356.835
lowerback 2.32271 -1.65388 -5.4001
upperback 2.58179 -2.27884 0.985118
thorax 1.61297 -1.24449 4.05909
lowerneck -9.88819 -0.531891 -9.09545
upperneck 40.8254 0.839415 2.42441
head 16.2599 -0.693588 2.85342
rclavicle -1.69712e-014 -3.57812e-015
rhumerus -44.8235 -28.9108 -60.6952
rradius 23.0068
rwrist -4.5815
rhand -19.8915 12.5862
rfingers 7.12502
rthumb 6.44454 -17.2958
lclavicle -1.69712e-014 -3.57812e-015
lhumerus -35.3804 5.6367 85.0133
lradius 42.4761
lwrist 6.00173
lhand -15.5171 22.7806
lfingers 7.12502
lthumb 10.666 52.4899
rfemur -28.5987 -11.5729 19.7073
rtibia 27.0895
rfoot 23.9511 -7.61263
rtoes 18.4653
lfemur 19.851 -0.578279 -26.0919
ltibia 20.7131
lfoot -19.9809 -14.3172
ltoes 11.0976
559
root -1.58101 22.5391 3.52813 356.99 8.50652 -357.099
lowerback 2.08082 -1.61366 -5.05817
upperback 2.51881 -2.21003 1.00592
thorax 1.66175 -1.20418 3.88163
lowerneck -9.9203 -0.55441 -8.77965
upperneck 40.8749 0.764315 2.33147
head 16.2991 -0.689126 2.74626
rclavicle 1.43125e-014 -6.36111e-015
rhumerus -45.3204 -29.581 -60.057
rradius 22.5489
rwrist -3.82667
rhand -19.8252 12.9013
rfingers 7.12502
rthumb 6.50853 -16.9787
lclavicle 1.43125e-014 -6.36111e-015
lhumerus -35.5315 6.01418 84.7047
lradius 40.937
lwrist 5.83543
lhand -15.5521 22.5751
lfingers 7.12502
lthumb 10.6322 52.2862
rfemur -28.0452 -11.735 20.1297
rtibia 27.1313
rfoot 24.1998 -6.97762
rtoes 17.0036
lfemur 20.1026 -0.613371 -25.646
ltibia 21.5225
lfoot -20.2375 -14.5956
ltoes 10.7055
560
root -1.5858 22.4795 3.69941 356.998 8.60013 -357.395
lowerback 1.83595 -1.60797 -4.75498
upperback 2.37823 -2.19175 1.12332
thorax 1.64379 -1.18771 3.82745
lowerneck -9.88135 -0.599837 -8.69323
upperneck 41.0709 0.736863 2.17663
head 16.4017 -0.71381 2.66316
rclavicle -1.34925e-014 -1.19271e-015
rhumerus -45.7989 -29.5149 -59.765
rradius 22.4488
rwrist -3.75365
rhand -20.026 13.0013
rfingers 7.12502
rthumb 6.31469 -16.8846
lclavicle -1.34925e-014 -1.19271e-015
lhumerus -36.0647 6.7689 84.3578
lradius 39.6554
lwrist 5.23864
lhand -15.6906 22.008
lfingers 7.12502
lthumb 10.4986 51.7259
rfemur -27.4093 -11.4917 20.4931
rtibia 27.1571
rfoot 24.4049 -6.96471
rtoes 17.2173
lfemur 20.2319 -0.485075 -25.1117
ltibia 22.4243
lfoot -20.9287 -14.4286
ltoes 8.29292
